<svg width="40.000000" height="40.000000" viewBox="0 0 40 40" fill="none" xmlns="http://www.w3.org/2000/svg" xmlns:xlink="http://www.w3.org/1999/xlink">
	<desc>
			Created with Pixso.
	</desc>
	<defs/>
	<circle id="Oval" cx="20.000000" cy="20.000000" r="20.000000" fill="#F9818E" fill-opacity="1.000000"/>
	<circle id="Oval" cx="20.000000" cy="20.000000" r="20.000000" stroke="#979797" stroke-opacity="0" stroke-width="0.000000"/>
	<path id="Shape" d="M14.9436 15L25.0566 15C27.7898 15 30 17.0293 30 19.8848C30 22.7419 27.7898 24.8215 25.0566 24.8215L14.9436 24.8215C12.2117 24.8215 10 22.7419 10 19.8848C10 17.0293 12.2117 15 14.9436 15ZM24.7461 18.9114C24.2668 18.9114 23.8779 18.5283 23.8779 18.0566C23.8779 17.585 24.2668 17.2009 24.7461 17.2009C25.2275 17.2009 25.6167 17.585 25.6167 18.0566C25.6167 18.5283 25.2275 18.9114 24.7461 18.9114ZM17.2661 20.625C17.3918 20.625 17.5 20.5088 17.5 20.3882L17.5 20.3882L17.5 19.3997C17.5 19.2793 17.394 19.1965 17.2688 19.1965L15.7144 19.1965L15.7144 17.6445C15.7144 17.5188 15.5981 17.4106 15.4775 17.4106L14.489 17.4106C14.3684 17.4106 14.2856 17.5166 14.2856 17.6418L14.2856 19.1963L12.7024 19.1963C12.5857 19.1963 12.5 19.292 12.5 19.4094L12.5 20.366C12.5 20.4863 12.5906 20.625 12.717 20.625L14.2856 20.625L14.2856 22.2083C14.2856 22.3252 14.3813 22.4106 14.4988 22.4106L15.4553 22.4106C15.5757 22.4106 15.7144 22.3201 15.7144 22.1936L15.7144 20.625L17.2661 20.625ZM22.8467 20.7805C22.3674 20.7805 21.9783 20.3972 21.9783 19.9255C21.9783 19.4539 22.3674 19.0698 22.8467 19.0698C23.3281 19.0698 23.717 19.4539 23.717 19.9255C23.717 20.3972 23.3281 20.7805 22.8467 20.7805ZM25.7776 19.9255C25.7776 20.3972 26.1667 20.7805 26.6455 20.7805C27.125 20.7805 27.5139 20.3972 27.5139 19.9255C27.5139 19.4539 27.125 19.0698 26.6455 19.0698C26.1667 19.0698 25.7776 19.4539 25.7776 19.9255ZM23.8779 21.7954C23.8779 22.2666 24.2668 22.6475 24.7461 22.6475C25.2275 22.6475 25.6167 22.2666 25.6167 21.7954C25.6167 21.3206 25.2275 20.9404 24.7461 20.9404C24.2668 20.9404 23.8779 21.3206 23.8779 21.7954Z" clip-rule="evenodd" fill="#FFFFFF" fill-opacity="1.000000" fill-rule="evenodd"/>
</svg>
