<svg width="40.000000" height="40.000000" viewBox="0 0 40 40" fill="none" xmlns="http://www.w3.org/2000/svg" xmlns:xlink="http://www.w3.org/1999/xlink">
	<desc>
			Created with Pixso.
	</desc>
	<defs/>
	<circle id="Oval" cx="20.000000" cy="20.000000" r="20.000000" fill="#FFAF7E" fill-opacity="1.000000"/>
	<circle id="Oval" cx="20.000000" cy="20.000000" r="20.000000" stroke="#979797" stroke-opacity="0" stroke-width="0.000000"/>
	<path id="Shape" d="M22.9531 12.4917C23.2 13.9312 22.374 15.3391 20.9971 15.8259L20.9971 18.0051L18.9978 18.0051L18.9978 15.8259C17.6208 15.3391 16.7949 13.9312 17.042 12.4917C17.2888 11.0522 18.5369 10 19.9976 10C21.458 10 22.7061 11.0522 22.9531 12.4917ZM18.9978 18.0051L14.9995 18.0051C14.4475 18.0051 14 18.4526 14 19.0046L14 29.0005C14 29.5525 14.4475 30 14.9995 30L24.9954 30C25.5474 30 25.9949 29.5525 25.9949 29.0005L25.9949 19.0046C25.9949 18.4526 25.5474 18.0051 24.9954 18.0051L20.9971 18.0051L20.9971 24.0024L18.9978 24.0024L18.9978 18.0051ZM18.9978 27.0012L16.9988 27.0012L16.9988 25.0022L18.9978 25.0022L18.9978 27.0012Z" clip-rule="evenodd" fill="#FFFFFF" fill-opacity="1.000000" fill-rule="evenodd"/>
</svg>
