<svg width="375.000000" height="172.000000" viewBox="0 0 375 172" fill="none" xmlns="http://www.w3.org/2000/svg" xmlns:xlink="http://www.w3.org/1999/xlink">
	<desc>
			Created with Pixso.
	</desc>
	<defs>
		<clipPath id="clip1_503">
			<rect id="Group 12 1" width="623.000000" height="576.091736" transform="translate(-162.000000 -136.545654)" fill="white" fill-opacity="0"/>
		</clipPath>
	</defs>
	<rect id="Mask" width="375.000000" height="172.000000" fill="#483EFF" fill-opacity="1.000000"/>
	<rect id="Mask" width="375.000000" height="172.000000" stroke="#979797" stroke-opacity="0" stroke-width="0.000000"/>
	<mask id="mask0_475" mask-type="alpha" maskUnits="userSpaceOnUse" x="0.000000" y="0.000000" width="375.000000" height="172.000000">
		<rect id="Mask" width="375.000000" height="172.000000" fill="#483EFF" fill-opacity="1.000000"/>
		<rect id="Mask" width="375.000000" height="172.000000" stroke="#979797" stroke-opacity="0" stroke-width="0.000000"/>
	</mask>
	<g mask="url(#mask0_475)">
		<rect id="Group 12 1" width="623.000000" height="576.091736" transform="translate(-162.000000 -136.545654)" fill="#FFFFFF" fill-opacity="0"/>
		<g clip-path="url(#clip1_503)">
			<path id="Oval" d="M-80.925 219.812C-25.311 350.916 217.322 427.844 280.639 321.572C343.957 215.3 183.745 196.014 127.111 86.1963C70.4756 -23.6216 26.4673 -92.1633 -55.3652 -67.1445C-137.198 -42.1257 -136.539 88.7075 -80.925 219.812Z" fill="#6259FF" fill-opacity="1.000000" fill-rule="evenodd"/>
			<path id="Oval" d="M311.62 304.909C400.568 263.458 447.71 94.5168 373.002 53.4688C298.295 12.4207 288.866 123.215 214.602 164.858C140.337 206.5 94.1936 238.456 113.391 294.208C132.588 349.961 222.671 346.361 311.62 304.909Z" fill="#F9818E" fill-opacity="1.000000" fill-rule="evenodd"/>
			<path id="Path-2" d="M212.247 111.33L227.795 95.4897" stroke="#FFFFFF" stroke-opacity="1.000000" stroke-width="5.000000" stroke-linejoin="bevel" stroke-linecap="round"/>
			<path id="Path-2-Copy-2" d="M276.974 119.369L258.643 103.973" stroke="#FFFFFF" stroke-opacity="1.000000" stroke-width="5.000000" stroke-linejoin="bevel" stroke-linecap="round"/>
			<path id="Path-2-Copy-3" d="M244.871 140.493L234.744 162.185" stroke="#FFFFFF" stroke-opacity="1.000000" stroke-width="5.000000" stroke-linejoin="bevel" stroke-linecap="round"/>
			<path id="Oval" d="M68.5901 127.153C68.5901 181.395 24.6182 225.367 -29.624 225.367C-83.8662 225.367 -127.838 181.395 -127.838 127.153C-127.838 72.9106 -83.8662 28.9387 -29.624 28.9387C24.6182 28.9387 68.5901 72.9106 68.5901 127.153Z" fill="#FFAF7E" fill-opacity="1.000000" fill-rule="evenodd"/>
		</g>
	</g>
</svg>
