<svg width="56.000000" height="56.000000" viewBox="0 0 56 56" fill="none" xmlns="http://www.w3.org/2000/svg" xmlns:xlink="http://www.w3.org/1999/xlink">
	<desc>
			Created with Pixso.
	</desc>
	<defs/>
	<circle id="Oval" cx="28.000000" cy="28.000000" r="28.000000" fill="#F9818E" fill-opacity="1.000000"/>
	<path id="Path" d="M33.925 55.4165C34.4624 55.312 34.9965 55.1919 35.5267 55.0559C36.4261 54.8052 37.3124 54.5098 38.1824 54.1704C39.0541 53.833 39.9084 53.4521 40.7422 53.0293C41.5757 52.6045 42.3873 52.1384 43.1742 51.6326C43.9598 51.1277 44.7198 50.5837 45.4512 50.0029C46.1843 49.4209 46.8879 48.8022 47.5592 48.1497C48.2288 47.4988 48.8654 46.8147 49.4666 46.1001C50.0692 45.385 50.6357 44.6399 51.1641 43.8682C51.6917 43.0972 52.1805 42.3005 52.6288 41.4807C53.0767 40.6602 53.4833 39.8179 53.847 38.9565C54.2117 38.0952 54.533 37.2163 54.8098 36.3228C55.0466 35.5408 55.2491 34.7488 55.4167 33.9492L38.7618 17.2883C35.7919 14.3171 31.9135 12.8333 28.0297 12.8333C24.1459 12.8333 20.2585 14.3169 17.2885 17.2883C11.3484 23.2307 11.3484 32.8318 17.2885 38.7739L33.925 55.4165Z" fill="#E96170" fill-opacity="1.000000" fill-rule="nonzero"/>
	<path id="Shape" d="M28.0023 12.8333C31.8792 12.8333 35.7549 14.314 38.7196 17.2788C44.649 23.2087 44.649 32.7896 38.7196 38.7192C32.7903 44.6489 23.2098 44.6489 17.2804 38.7192C11.3511 32.7896 11.3511 23.2087 17.2804 17.2788C20.2451 14.314 24.1255 12.8333 28.0023 12.8333ZM34.297 23.574C34.4719 23.4375 34.6865 23.3528 34.9073 23.3325C34.9468 23.3306 34.9863 23.3306 35.0258 23.3325C35.9967 23.3464 36.4803 24.8701 35.6953 25.4414L26.3672 32.438C25.9231 32.7693 25.238 32.7202 24.8458 32.3286L20.1818 27.6643C19.2896 26.8076 20.9739 25.123 21.8307 26.0154L25.7795 29.9646L34.297 23.574Z" clip-rule="evenodd" fill="#FFFFFF" fill-opacity="1.000000" fill-rule="evenodd"/>
</svg>
