<svg width="40.000000" height="40.000000" viewBox="0 0 40 40" fill="none" xmlns="http://www.w3.org/2000/svg" xmlns:xlink="http://www.w3.org/1999/xlink">
	<desc>
			Created with Pixso.
	</desc>
	<defs/>
	<circle id="Oval" cx="20.000000" cy="20.000000" r="20.000000" fill="#483EFF" fill-opacity="1.000000"/>
	<circle id="Oval" cx="20.000000" cy="20.000000" r="20.000000" stroke="#979797" stroke-opacity="0" stroke-width="0.000000"/>
	<path id="Shape" d="M26.6665 13L13.3335 13C11.4927 13 10.0005 14.4924 10.0005 16.3333L10.0005 23.5264C9.97974 24.9436 10.8286 26.229 12.1404 26.7661C13.3777 27.2664 14.7957 26.9478 15.7002 25.9661L18.52 22.9995L21.48 22.9995L24.2998 25.9661C25.2034 26.9495 26.6223 27.2683 27.8596 26.7661C29.1714 26.229 30.0203 24.9436 29.9995 23.5264L29.9995 16.3333C29.9995 14.4924 28.5073 13 26.6665 13ZM16.0002 18.9998L17.3335 18.9998C17.7017 18.9998 18 18.7014 18 18.3333C18 17.9648 17.7017 17.6665 17.3335 17.6665L16.0002 17.6665L16.0002 16.3333C16.0002 15.9651 15.7017 15.6665 15.3335 15.6665C14.9653 15.6665 14.6667 15.9651 14.6667 16.3333L14.6667 17.6665L13.3335 17.6665C12.9653 17.6665 12.667 17.9648 12.667 18.3333C12.667 18.7014 12.9653 18.9998 13.3335 18.9998L14.6667 18.9998L14.6667 20.333C14.6667 20.7012 14.9653 20.9998 15.3335 20.9998C15.7017 20.9998 16.0002 20.7012 16.0002 20.333L16.0002 18.9998ZM24.6665 20.9998C23.1938 20.9998 22 19.8059 22 18.3333C22 16.8604 23.1938 15.6665 24.6665 15.6665C26.1392 15.6665 27.333 16.8604 27.333 18.3333C27.333 19.0403 27.052 19.7185 26.552 20.2188C26.052 20.7188 25.3738 20.9998 24.6665 20.9998ZM24.6665 19.6665C25.4028 19.6665 25.9998 19.0696 25.9998 18.3333C25.9998 17.5967 25.4028 16.9998 24.6665 16.9998C23.9302 16.9998 23.3333 17.5967 23.3333 18.3333C23.3333 19.0696 23.9302 19.6665 24.6665 19.6665Z" clip-rule="evenodd" fill="#FFFFFF" fill-opacity="1.000000" fill-rule="evenodd"/>
</svg>
